# Blender 3.2.1
# www.blender.org
mtllib hand.mtl
o 16834_hand_v1_NEW
v 0.084763 9.050380 -17.494169
v -5.766295 22.454327 -4.797448
v -4.824839 24.656784 -5.659073
v -3.679412 25.107319 -6.940821
v -3.351434 25.790970 -2.876992
v -4.594466 25.094852 -3.824333
v -4.097611 26.997616 -5.713421
v -3.537769 27.140640 -3.853605
v -2.672473 26.623562 -6.306473
v -7.156912 18.792885 -4.470021
v -4.448290 23.163021 -2.596656
v -1.809114 26.238930 -3.765440
v -1.289609 25.244156 -5.067199
v -2.254319 24.229427 -6.746518
v -2.811846 21.811214 -3.201586
v -2.350514 21.322590 -5.303592
v -2.952946 17.690952 -4.201015
v -7.375420 17.578293 -3.858303
v -6.637478 17.801563 -2.516840
v -6.970092 17.439579 -5.310846
v -5.434164 16.376839 -6.102426
v -5.472418 16.892544 -1.919311
v -3.601463 16.561722 -2.993673
v -3.516688 16.153225 -4.903488
v -4.357070 11.346595 -1.333560
v -8.102554 10.738370 -2.707664
v -7.653985 12.822154 -4.287750
v -6.862356 11.705092 -5.338706
v -2.829489 11.546735 -3.699720
v -4.248250 11.323649 -5.433466
v -6.173960 9.675714 -6.141794
v -4.458586 24.704617 0.907141
v -4.702200 23.033298 -0.232132
v -1.741475 25.072845 2.068037
v -3.011488 26.162624 1.718746
v -3.404604 26.295898 -0.031812
v -2.439088 24.863045 -1.269404
v -3.356135 24.660259 2.311707
v -5.092719 21.583096 1.594741
v -6.099496 17.929890 1.478572
v -6.429996 15.748202 1.597840
v -6.330893 16.655434 0.293020
v -4.781363 10.390662 3.559396
v -6.636037 11.919166 2.523615
v -4.263994 16.344070 3.155329
v -5.673735 16.702251 2.690530
v -3.015728 11.027707 2.630813
v -2.604789 21.251354 2.581975
v -3.197808 16.082443 2.535187
v -1.468389 20.699978 0.310284
v -0.844758 23.377426 0.739044
v -1.458924 25.547184 0.216404
v -3.491101 21.429924 -1.080124
v -3.133954 16.148376 -0.306333
v -4.854150 17.099106 -0.923094
v -5.544806 11.001637 -0.836477
v -2.711459 15.881900 1.297529
v -6.860435 11.636434 0.259335
v -3.516151 19.497566 5.348597
v -3.537292 18.643478 6.820403
v -1.817852 17.683697 7.661983
v -1.871923 20.274654 5.129135
v -3.406563 20.455032 6.425451
v -1.801557 20.422264 6.925292
v -2.493400 20.129807 7.324728
v -4.009842 17.115055 6.648305
v -4.304008 14.207086 6.290754
v -1.516407 13.502507 7.184383
v -0.871655 17.556988 6.524094
v -2.602233 19.203384 4.564959
v -1.455259 17.138184 4.882169
v -4.687001 12.989703 6.562997
v -4.672328 13.583669 5.453312
v -4.400384 10.821473 6.966426
v -3.066147 13.893596 7.632385
v -3.570523 14.198066 4.446344
v -1.008767 13.484424 6.137289
v -0.873109 10.488763 6.070514
v -1.361094 13.442472 4.850770
v -4.819314 9.551400 4.627053
v -4.503819 7.175769 7.787066
v -5.701434 8.216903 5.886974
v -3.850442 1.846973 7.086693
v -6.142783 5.966599 4.153943
v -1.629145 9.637586 7.110978
v -0.362458 8.289231 4.953460
v -1.586675 9.774726 4.407070
v -4.169213 9.932454 4.427571
v -1.875061 9.587956 2.048323
v -3.998741 22.824005 -9.326661
v -2.822228 23.867699 -11.951172
v -3.699726 24.665726 -10.644145
v -2.132345 24.997829 -9.862450
v -2.930760 24.687210 -8.978543
v -4.150290 22.453686 -10.865577
v -5.030067 20.384743 -8.898115
v -4.241076 19.737633 -11.420933
v -2.312027 22.067158 -8.031651
v -3.901702 15.315970 -7.124959
v -2.850112 20.128109 -8.102383
v -0.825741 23.077084 -9.689948
v -1.384520 23.723240 -11.535095
v -1.664586 20.128609 -9.932349
v -2.517061 19.848816 -11.436769
v -5.742271 16.708698 -9.890241
v -5.675778 16.944981 -8.325359
v -5.160358 15.976182 -7.263520
v -6.144131 15.352035 -8.897868
v -5.229528 12.568200 -9.981517
v -5.196144 15.753612 -10.861057
v -6.235982 11.486547 -7.744744
v -2.618785 10.405852 -6.922806
v -2.549766 15.458335 -9.016206
v -2.700564 15.718287 -10.432359
v -3.735996 15.041150 -11.148327
v -3.001364 8.860227 -9.905920
v -2.148059 10.278649 -8.718441
v -7.822422 9.665191 1.064271
v -2.868308 11.344914 0.610114
v -3.188864 10.754985 -1.288340
v -7.987987 8.464032 -0.598864
v -7.682732 7.742665 1.988866
v -8.008138 0.545465 -2.404107
v -8.831146 8.366624 -2.679662
v -8.591434 8.248622 -4.175078
v -7.502805 5.945350 -5.766764
v -3.790576 10.765565 -6.188768
v -2.032117 8.382476 -1.549218
v -7.099200 7.501685 -8.077384
v -5.591527 4.843982 -9.534036
v -0.817063 5.098058 -18.758205
v 1.111937 6.975455 -20.087187
v 2.597919 7.155345 -18.710552
v -0.333857 7.317328 -20.427568
v 1.482769 8.444158 -19.158724
v -0.440501 8.845145 -19.092926
v -1.509586 7.824580 -19.291290
v -1.802139 6.984504 -18.080767
v -1.776329 8.158906 -16.661903
v 2.777075 3.747743 -16.926516
v -2.105475 3.533154 -16.619764
v 1.447016 8.019883 -16.275764
v -1.271007 5.656354 -13.861918
v -2.254188 2.272855 -16.281546
v -1.282202 1.175382 -16.229216
v -0.659620 2.420866 -17.168999
v -2.902646 2.716426 -14.820672
v 1.704412 1.397900 -15.622848
v 1.082673 1.769847 -16.579212
v 0.069280 4.093118 -13.028913
v 0.647465 3.685420 -12.965149
v 2.660583 4.140910 -14.838475
v 1.955339 2.174098 -14.533728
v -2.383872 3.132934 -13.942852
v -3.455893 0.160319 -12.799090
v -2.536662 -3.120002 -13.535305
v -0.760527 -3.226530 -14.296115
v -3.748110 -2.103025 -12.783298
v 0.808735 0.876966 -11.097259
v -0.417503 2.362813 -7.496593
v -1.077445 1.752892 -11.085000
v -7.406433 1.321541 1.496634
v -6.935542 -1.006464 -7.314127
v -1.800523 3.084327 -9.466986
v -1.068008 4.395772 -7.929926
v -3.559611 0.764414 -10.882737
v -4.177850 -4.484763 -10.621778
v -0.725633 -3.556518 7.548757
v -5.312975 -4.763298 3.406264
v -3.065237 -7.167785 5.469404
v -6.380252 -9.453297 -3.019677
v -6.581490 -6.310899 0.101040
v 1.493231 -5.089794 -12.585628
v -1.049216 -8.389804 -10.758844
v 2.527025 -8.916965 -8.225070
v 1.674011 -5.485505 -1.906437
v 3.702584 -7.020192 -5.619651
v -1.298648 -0.501678 -0.834943
v -1.179120 -0.210069 -3.775739
v -1.200666 7.220992 -6.684234
v -2.243311 8.146674 -5.340463
v 0.072615 0.628258 7.642829
v 0.515244 3.218116 4.895298
v 3.047239 -6.616339 2.144641
v 2.590244 -2.892138 5.323514
v 1.830738 -8.049978 4.495912
v 1.848948 -9.916163 -4.818380
v -4.827958 -7.829778 -7.214139
v -2.427232 -9.636784 -8.080034
v -6.156297 -13.193832 4.346027
v 1.792769 -9.837395 2.326910
v -0.768076 -13.359619 5.650360
v -0.066177 -9.618535 4.980955
v 1.720403 -8.817276 -1.195652
v 1.474965 -13.317495 -4.283243
v -0.890273 -10.089301 -7.833807
v -0.296401 -13.322106 -7.307533
v -6.716125 -13.287615 -0.834736
v 1.955990 -0.798873 -12.436640
v 1.968583 -1.325729 -5.605107
v 1.660490 -13.302692 2.586963
v -4.724052 -13.300801 -6.117169
vn 0.9808 0.0798 0.1779
vn 0.4185 0.7062 -0.5710
vn 0.5494 0.7375 0.3927
vn -0.7446 0.4633 0.4805
vn -0.9899 0.0908 -0.1092
vn -0.9587 0.0904 -0.2697
vn 0.8077 0.4866 0.3329
vn 0.9545 0.2831 0.0940
vn 0.9906 -0.1033 0.0895
vn -0.9018 0.2632 0.3428
vn -0.9249 0.2161 -0.3130
vn -0.3678 0.2250 0.9023
vn -0.9259 0.3760 -0.0358
vn -0.2143 0.8841 0.4152
vn -0.0717 0.3290 0.9416
vn -0.5295 0.7841 -0.3236
vn -0.2930 0.1954 -0.9359
vn 0.3791 0.6873 -0.6196
vn 0.7404 0.4843 0.4661
vn -0.9553 0.2829 -0.0858
vn 0.5860 -0.0464 -0.8090
vn -0.0145 -0.0820 -0.9965
vn -0.7304 -0.0591 0.6805
vn -0.1052 0.0813 0.9911
vn 0.7269 -0.0889 0.6810
vn 0.9881 0.1283 -0.0847
vn 0.8596 -0.1239 -0.4958
vn 0.9695 -0.2176 -0.1131
vn -0.7657 0.0601 -0.6404
vn -0.9698 0.1317 0.2054
vn -0.9154 0.0751 -0.3954
vn -0.4755 0.0848 -0.8756
vn 0.2563 0.4518 -0.8545
vn 0.8239 -0.0112 0.5666
vn 0.9728 -0.2196 0.0736
vn 0.4442 0.4084 0.7975
vn 0.9579 0.2809 -0.0589
vn 0.4096 0.8099 0.4199
vn 0.0145 -0.0248 -0.9996
vn -0.8203 0.2016 -0.5352
vn 0.1876 0.2976 -0.9361
vn -0.3450 0.2880 0.8933
vn -0.1252 0.8380 0.5310
vn -0.9032 0.4029 0.1479
vn -0.3408 0.8661 -0.3658
vn 0.7658 0.6008 -0.2291
vn 0.5951 0.3785 0.7089
vn -0.2923 0.0643 -0.9542
vn -0.9796 0.1856 0.0768
vn -0.6576 0.1552 0.7372
vn -0.8917 0.2606 0.3700
vn -0.7973 0.1945 0.5714
vn -0.9468 0.2209 0.2342
vn -0.8627 0.2732 -0.4257
vn -0.8793 0.2925 -0.3759
vn 0.0912 0.6305 0.7708
vn 0.0959 0.0532 0.9940
vn 0.5163 -0.0354 0.8557
vn 0.9993 -0.0369 -0.0064
vn 0.7447 -0.0359 0.6665
vn 0.9433 -0.2076 -0.2590
vn 0.7305 0.4923 0.4733
vn 0.9925 -0.0997 0.0712
vn 0.6788 -0.1314 -0.7225
vn -0.5984 0.7990 -0.0593
vn 0.8961 0.2868 -0.3387
vn 0.2703 0.0687 0.9603
vn -0.1456 0.4748 0.8680
vn -0.9131 0.1154 0.3910
vn -0.8033 0.1621 0.5731
vn -0.6636 0.7359 0.1350
vn -0.7993 0.3792 -0.4662
vn -0.2323 0.0141 0.9726
vn 0.9956 0.0250 0.0905
vn 0.6941 0.0505 -0.7181
vn -0.4151 0.1533 -0.8967
vn -0.1077 0.2899 -0.9510
vn 0.7005 0.0540 -0.7116
vn -0.9142 0.1780 0.3642
vn -0.9179 0.3139 0.2426
vn -0.8559 0.4322 0.2840
vn -0.6599 0.0641 0.7486
vn 0.9655 -0.2477 0.0805
vn 0.8044 0.5029 -0.3163
vn -0.9596 0.1916 0.2061
vn -0.4639 0.0179 0.8857
vn -0.8668 -0.0277 0.4979
vn -0.6565 -0.1567 0.7378
vn -0.5886 0.8006 -0.1124
vn 0.5817 0.0554 0.8115
vn 0.9442 0.3291 0.0114
vn 0.8981 0.4065 -0.1679
vn -0.6465 0.7235 -0.2422
vn -0.9001 0.2187 -0.3769
vn -0.9017 0.3729 0.2187
vn -0.1467 0.4127 -0.8990
vn 0.3965 0.9076 0.1383
vn -0.5459 0.0289 -0.8374
vn 0.6969 0.3176 -0.6430
vn -0.9102 0.3066 0.2785
vn -0.1573 0.7058 0.6907
vn -0.4979 0.1830 0.8477
vn 0.3640 0.1026 0.9257
vn -0.9373 0.1375 -0.3204
vn -0.9162 0.2116 0.3402
vn -0.6051 -0.0765 -0.7925
vn 0.4951 -0.1768 -0.8506
vn 0.9610 0.1322 0.2427
vn 0.7249 -0.1578 0.6706
vn 0.9782 -0.2064 0.0207
vn 0.9680 0.0096 0.2507
vn 0.4080 0.1745 0.8961
vn 0.8526 -0.1616 -0.4970
vn 0.1687 -0.1798 -0.9691
vn -0.9981 0.0595 -0.0138
vn -0.9293 0.2537 0.2683
vn 0.8000 0.3440 0.4916
vn 0.9656 0.1165 -0.2326
vn -0.6473 -0.1222 -0.7524
vn 0.4057 -0.0238 -0.9137
vn -0.8244 0.5197 -0.2244
vn 0.6675 0.7405 0.0776
vn -0.8610 0.3555 -0.3637
vn -0.9634 0.1762 0.2020
vn -0.9634 0.2300 0.1373
vn -0.9285 0.0191 0.3707
vn -0.9312 -0.0963 0.3516
vn -0.9044 0.0561 -0.4229
vn -0.9900 0.0765 0.1182
vn -0.9521 -0.0054 -0.3056
vn 0.9771 0.2065 -0.0517
vn 0.9329 0.3165 0.1720
vn -0.4556 -0.0198 -0.8900
vn -0.9173 0.0769 -0.3907
vn -0.8983 -0.1112 -0.4251
vn 0.9637 0.2389 0.1189
vn 0.3898 -0.1049 -0.9149
vn -0.4727 -0.4283 -0.7701
vn -0.2283 0.0377 -0.9729
vn 0.5276 0.7379 -0.4210
vn -0.8197 0.2731 -0.5035
vn -0.2308 0.8779 -0.4196
vn -0.9661 -0.0398 -0.2549
vn -0.6904 0.6568 0.3033
vn -0.8217 -0.1272 -0.5555
vn 0.0376 0.9710 0.2360
vn 0.8738 -0.3318 -0.3555
vn 0.9177 0.2244 -0.3279
vn -0.2081 -0.5092 -0.8351
vn -0.3723 0.4820 0.7931
vn -0.7449 -0.3680 -0.5565
vn 0.5009 0.6986 0.5109
vn 0.0691 0.5569 0.8277
vn 0.8765 0.0856 0.4738
vn 0.9618 -0.0948 0.2569
vn 0.8211 -0.4157 -0.3912
vn -0.3937 -0.4479 -0.8028
vn 0.5378 0.4795 0.6934
vn -0.0148 0.9966 0.0815
vn 0.3340 -0.5526 -0.7636
vn -0.0494 -0.4845 -0.8734
vn -0.7733 0.3665 -0.5173
vn -0.5717 -0.3809 -0.7266
vn 0.6345 -0.4064 -0.6574
vn -0.1396 -0.7358 -0.6627
vn 0.9909 0.1345 -0.0094
vn 0.7773 0.5737 0.2580
vn 0.4542 0.4904 -0.7438
vn 0.8349 0.5327 0.1384
vn -0.9670 -0.1027 0.2331
vn -0.8135 -0.0884 0.5748
vn 0.0120 -0.2323 0.9726
vn -0.9949 -0.1003 -0.0090
vn -0.9683 -0.1008 -0.2287
vn 0.9272 0.0650 0.3689
vn 0.7302 -0.3642 0.5780
vn 0.6743 -0.6399 -0.3685
vn 0.9001 -0.4190 -0.1196
vn 0.9058 0.3621 -0.2202
vn 0.9406 0.2857 -0.1836
vn 0.9593 0.1301 -0.2508
vn 0.8803 0.3691 0.2981
vn 0.4558 0.0580 0.8882
vn 0.9974 -0.0691 -0.0182
vn 0.1872 -0.4252 -0.8855
vn -0.2834 -0.5466 -0.7879
vn 0.4910 -0.1842 0.8514
vn -0.7771 -0.3005 -0.5530
vn -0.5142 -0.6875 -0.5128
vn -0.7538 -0.6556 -0.0453
vn -0.6522 -0.5540 0.5174
vn -0.3945 -0.1193 0.9111
vn 0.7306 -0.6336 0.2546
vn 0.9466 -0.2290 0.2270
vn 0.2687 -0.6082 0.7469
vn 0.6962 -0.6980 -0.1678
vn 0.9917 -0.1285 0.0071
vn 0.3047 -0.6432 -0.7025
vn -0.8411 -0.0416 -0.5393
vn -0.8537 0.3265 0.4057
vn 0.6453 -0.0193 0.7636
vn -0.7898 -0.2975 -0.5364
s 1
usemtl _16834_hand_v1default
f 69//1 62//2 64//3
f 154//4 147//5 155//6
f 200//7 176//8 177//9
f 6//10 3//11 11//12
f 3//11 2//13 11//12
f 8//14 6//10 5//15
f 3//11 6//10 7//16
f 4//17 7//16 9//18
f 9//18 8//14 12//19
f 10//20 11//12 2//13
f 4//17 10//20 2//13
f 14//21 21//22 4//17
f 11//12 19//23 22//24
f 11//12 15//25 5//15
f 15//25 12//19 5//15
f 14//21 9//18 13//26
f 21//22 14//21 24//27
f 22//24 15//25 11//12
f 16//28 13//26 15//25
f 20//29 10//20 4//17
f 10//20 20//29 18//30
f 27//31 20//29 28//32
f 18//30 22//24 19//23
f 28//32 21//22 30//33
f 20//29 21//22 28//32
f 15//25 22//24 23//34
f 24//27 17//35 23//34
f 30//33 21//22 24//27
f 25//36 29//37 23//34
f 30//33 29//37 127//38
f 53//39 33//40 37//41
f 38//42 35//43 32//44
f 33//40 36//45 37//41
f 52//46 37//41 36//45
f 35//43 34//47 52//46
f 53//39 55//48 33//40
f 40//49 46//50 39//51
f 46//50 38//42 39//51
f 44//52 46//50 41//53
f 58//54 41//53 42//55
f 46//50 44//52 43//56
f 43//56 45//57 46//50
f 48//58 51//59 34//47
f 49//60 50//61 48//58
f 48//58 45//57 49//60
f 49//60 45//57 47//62
f 50//61 49//60 57//63
f 50//61 51//59 48//58
f 52//46 34//47 51//59
f 54//64 56//65 55//48
f 37//41 52//46 51//59
f 50//61 54//64 53//39
f 57//63 119//66 54//64
f 119//66 56//65 54//64
f 47//62 57//63 49//60
f 61//67 65//68 66//69
f 66//69 65//68 60//70
f 60//70 63//71 59//72
f 62//2 59//72 63//71
f 61//67 66//69 75//73
f 61//67 69//1 64//3
f 69//1 61//67 77//74
f 79//75 76//76 70//77
f 77//74 71//78 69//1
f 72//79 75//73 67//80
f 72//79 80//81 74//82
f 78//83 79//75 77//74
f 78//83 87//84 79//75
f 74//82 80//81 82//85
f 81//86 74//82 82//85
f 84//87 82//85 80//81
f 82//85 84//87 81//86
f 83//88 81//86 84//87
f 80//81 88//89 43//56
f 74//82 85//90 75//73
f 85//90 86//91 87//84
f 87//84 76//76 79//75
f 87//84 88//89 76//76
f 89//92 47//62 87//84
f 92//93 95//94 90//95
f 91//96 92//93 93//97
f 97//98 95//94 91//96
f 91//96 93//97 102//99
f 96//100 90//95 95//94
f 96//100 94//101 90//95
f 96//100 107//102 94//101
f 107//102 98//103 94//101
f 97//98 105//104 96//100
f 106//105 107//102 96//100
f 110//106 97//98 104//107
f 94//101 98//103 93//97
f 93//97 98//103 101//108
f 98//103 107//102 100//109
f 103//110 100//109 113//111
f 100//109 99//112 113//111
f 98//103 100//109 103//110
f 102//99 93//97 101//108
f 104//107 102//99 101//108
f 91//96 102//99 104//107
f 114//113 104//107 103//110
f 113//111 114//113 103//110
f 110//106 104//107 115//114
f 107//102 108//115 111//116
f 99//112 127//38 112//117
f 115//114 114//113 117//118
f 114//113 113//111 117//118
f 111//116 127//38 107//102
f 109//119 115//114 116//120
f 111//116 31//121 127//38
f 116//120 115//114 117//118
f 44//52 80//81 43//56
f 119//66 120//122 56//65
f 120//122 25//36 56//65
f 120//122 119//66 89//92
f 88//89 80//81 72//79 73//123
f 56//65 121//124 58//54
f 118//125 122//126 44//52
f 121//124 162//127 118//125
f 31//121 125//128 28//32
f 124//129 27//31 125//128
f 125//128 31//121 126//130
f 29//37 120//122 128//131
f 181//132 112//117 127//38
f 130//133 129//134 109//119
f 129//134 130//133 163//135
f 126//130 129//134 163//135
f 109//119 116//120 130//133
f 117//118 112//117 180//136
f 132//137 131//138 134//139
f 132//137 134//139 135//140
f 134//139 137//141 136//142
f 138//143 137//141 131//138
f 139//144 138//143 141//145
f 1//146 136//142 139//144
f 140//147 132//137 133//148
f 146//149 131//138 132//137
f 131//138 141//145 138//143
f 154//4 143//150 139//144
f 147//5 141//145 144//151
f 147//5 139//144 141//145
f 147//5 154//4 139//144
f 139//144 142//152 1//146
f 142//152 139//144 143//150
f 143//150 154//4 150//153
f 135//140 142//152 133//148
f 152//154 133//148 142//152
f 153//155 148//156 140//147
f 144//151 146//149 145//157
f 145//157 147//5 144//151
f 151//158 150//153 161//159
f 150//153 151//158 152//154
f 143//150 150//153 142//152
f 152//154 151//158 153//155
f 149//160 148//156 157//161
f 154//4 155//6 166//162
f 156//163 145//157 157//161
f 173//164 157//161 148//156
f 174//165 157//161 173//164
f 199//166 148//156 153//155
f 148//156 199//166 173//164
f 159//167 151//158 161//159
f 159//167 164//168 160//169
f 162//127 84//87 122//126
f 162//127 172//170 169//171
f 83//88 84//87 162//127
f 162//127 169//171 83//88
f 81//86 83//88 168//172
f 123//173 172//170 162//127
f 166//162 163//135 130//133
f 123//173 171//174 172//170
f 185//175 168//172 186//176
f 157//161 174//165 156//163
f 173//164 177//9 175//177
f 187//178 175//177 177//9
f 178//179 183//180 176//8
f 29//37 128//131 181//132
f 165//181 116//120 117//118
f 165//181 117//118 180//136
f 181//132 178//179 180//136
f 128//131 178//179 181//132
f 179//182 165//181 180//136
f 178//179 89//92 183//180
f 182//183 81//86 168//172
f 165//181 160//169 164//168
f 176//8 183//180 184//184
f 196//185 189//186 175//177
f 193//187 186//176 168//172
f 196//185 175//177 187//178
f 171//174 188//188 202//189
f 169//171 172//170 198//190
f 169//171 190//191 170//192
f 201//193 191//194 192//195
f 191//194 195//196 194//197
f 197//198 187//178 195//196
f 191//194 184//184 186//176
f 199//166 200//7 177//9
f 128//131 120//122 89//92
f 195//196 191//194 201//193
f 198//190 171//174 202//189
f 192//195 202//189 197//198
f 192//195 195//196 201//193
f 195//196 192//195 197//198
f 192//195 198//190 202//189
f 135//140 1//146 142//152
f 155//6 156//163 158//199
f 4//17 2//13 3//11
f 5//15 6//10 11//12
f 4//17 3//11 7//16
f 8//14 7//16 6//10
f 9//18 7//16 8//14
f 14//21 4//17 9//18
f 11//12 10//20 19//23
f 8//14 5//15 12//19
f 13//26 9//18 12//19
f 24//27 14//21 16//28
f 15//25 13//26 12//19
f 16//28 14//21 13//26
f 17//35 16//28 15//25
f 20//29 27//31 18//30
f 19//23 10//20 18//30
f 18//30 56//65 22//24
f 20//29 4//17 21//22
f 23//34 22//24 25//36
f 17//35 15//25 23//34
f 29//37 30//33 24//27
f 18//30 27//31 26//200
f 56//65 18//30 26//200
f 56//65 25//36 22//24
f 120//122 29//37 25//36
f 23//34 29//37 24//27
f 30//33 31//121 28//32
f 33//40 32//44 36//45
f 38//42 34//47 35//43
f 36//45 32//44 35//43
f 36//45 35//43 52//46
f 33//40 39//51 32//44
f 38//42 32//44 39//51
f 38//42 45//57 48//58
f 33//40 55//48 40//49
f 33//40 40//49 39//51
f 45//57 38//42 46//50
f 46//50 40//49 42//55
f 46//50 42//55 41//53
f 44//52 41//53 58//54
f 42//55 40//49 55//48
f 43//56 47//62 45//57
f 58//54 42//55 55//48
f 38//42 48//58 34//47
f 37//41 50//61 53//39
f 53//39 54//64 55//48
f 50//61 37//41 51//59
f 50//61 57//63 54//64
f 47//62 119//66 57//63
f 58//54 55//48 56//65
f 59//72 66//69 60//70
f 59//72 76//76 66//69
f 65//68 63//71 60//70
f 70//77 76//76 59//72
f 70//77 59//72 62//2
f 62//2 63//71 64//3
f 64//3 63//71 65//68
f 67//80 66//69 76//76
f 67//80 75//73 66//69
f 65//68 61//67 64//3
f 75//73 68//201 61//67
f 61//67 68//201 77//74
f 70//77 71//78 79//75
f 62//2 71//78 70//77
f 71//78 62//2 69//1
f 71//78 77//74 79//75
f 73//123 67//80 76//76
f 73//123 72//79 67//80
f 168//172 83//88 169//171 170//192
f 75//73 72//79 74//82
f 75//73 85//90 68//201
f 73//123 76//76 88//89
f 68//201 78//83 77//74
f 81//86 85//90 74//82
f 80//81 44//52 84//87
f 78//83 68//201 85//90
f 85//90 87//84 78//83
f 87//84 47//62 88//89
f 88//89 47//62 43//56
f 95//94 92//93 91//96
f 90//95 94//101 92//93
f 93//97 92//93 94//101
f 97//98 96//100 95//94
f 106//105 96//100 105//104
f 97//98 110//106 105//104
f 97//98 91//96 104//107
f 98//103 103//110 101//108
f 103//110 104//107 101//108
f 106//105 105//104 108//115
f 107//102 106//105 108//115
f 110//106 108//115 105//104
f 108//115 110//106 109//119
f 111//116 108//115 109//119
f 109//119 110//106 115//114
f 107//102 127//38 99//112
f 107//102 99//112 100//109
f 99//112 112//117 113//111
f 104//107 114//113 115//114
f 117//118 113//111 112//117
f 58//54 118//125 44//52
f 58//54 121//124 118//125
f 47//62 89//92 119//66
f 56//65 26//200 121//124
f 84//87 44//52 122//126
f 122//126 118//125 162//127
f 123//173 121//124 124//129
f 124//129 121//124 26//200
f 27//31 28//32 125//128
f 124//129 26//200 27//31
f 123//173 124//129 125//128
f 125//128 126//130 123//173
f 127//38 31//121 30//33
f 181//132 127//38 29//37
f 109//119 129//134 111//116
f 126//130 111//116 129//134
f 31//121 111//116 126//130
f 130//133 116//120 164//168
f 135//140 133//148 132//137
f 135//140 134//139 136//142
f 134//139 131//138 137//141
f 136//142 137//141 139//144
f 138//143 139//144 137//141
f 140//147 149//160 132//137
f 146//149 141//145 131//138
f 149//160 146//149 132//137
f 140//147 148//156 149//160
f 146//149 144//151 141//145
f 136//142 1//146 135//140
f 140//147 133//148 152//154
f 153//155 140//147 152//154
f 145//157 149//160 157//161
f 149//160 145//157 146//149
f 150//153 154//4 161//159
f 142//152 150//153 152//154
f 153//155 151//158 159//167
f 156//163 147//5 145//157
f 147//5 156//163 155//6
f 158//199 156//163 167//202
f 199//166 153//155 159//167
f 154//4 166//162 161//159
f 162//127 121//124 123//173
f 163//135 123//173 126//130
f 165//181 164//168 116//120
f 164//168 166//162 130//133
f 166//162 167//202 163//135
f 188//188 171//174 163//135 167//202
f 123//173 163//135 171//174
f 167//202 156//163 174//165
f 174//165 188//188 167//202
f 173//164 175//177 174//165
f 177//9 176//8 194//197
f 194//197 187//178 177//9
f 200//7 179//182 176//8
f 178//179 176//8 179//182
f 180//136 178//179 179//182
f 159//167 160//169 199//166
f 165//181 179//182 160//169
f 112//117 181//132 180//136
f 89//92 86//91 183//180
f 85//90 185//175 183//180
f 86//91 85//90 183//180
f 182//183 185//175 85//90
f 81//86 182//183 85//90
f 184//184 183//180 185//175
f 175//177 189//186 174//165
f 194//197 176//8 184//184
f 184//184 185//175 186//176
f 168//172 170//192 193//187
f 188//188 174//165 189//186
f 171//174 198//190 172//170
f 170//192 190//191 192//195
f 186//176 193//187 191//194
f 192//195 193//187 170//192
f 192//195 191//194 193//187
f 195//196 187//178 194//197
f 197//198 196//185 187//178
f 189//186 196//185 202//189
f 189//186 202//189 188//188
f 169//171 198//190 190//191
f 161//159 164//168 159//167
f 185//175 182//183 168//172
f 194//197 184//184 191//194
f 24//27 16//28 17//35
f 164//168 161//159 166//162
f 179//182 200//7 160//169
f 173//164 199//166 177//9
f 199//166 160//169 200//7
f 86//91 89//92 87//84
f 89//92 178//179 128//131
f 158//199 166//162 155//6
f 166//162 158//199 167//202
f 202//189 196//185 197//198
f 190//191 198//190 192//195
